<svg xmlns="http://www.w3.org/2000/svg" viewBox="0 0 240 104">
  <rect width="240" height="104" rx="8" fill="#f4f7f9"/><g fill="none"><circle cx="58" cy="51" r="25" stroke="#b66a3c" stroke-width="2" stroke-dasharray="4 3"/><circle cx="180" cy="51" r="39" stroke="#b66a3c" stroke-width="2" stroke-dasharray="4 3"/><path d="M51 57 62 43l-18-7 27-11 18 25 22-9" stroke="#174a7c" stroke-width="3"/><path d="M173 57 184 43l-18-7 27-11 18 25 20-9" stroke="#174a7c" stroke-width="3"/></g><g fill="#174a7c"><circle cx="51" cy="57" r="3"/><circle cx="62" cy="43" r="3"/><circle cx="44" cy="36" r="3"/><circle cx="71" cy="25" r="3"/><circle cx="173" cy="57" r="3"/><circle cx="184" cy="43" r="3"/><circle cx="166" cy="36" r="3"/><circle cx="193" cy="25" r="3"/></g><text x="29" y="94" fill="#174a7c" font-family="monospace" font-size="11">radius = 2</text><text x="145" y="94" fill="#174a7c" font-family="monospace" font-size="11">radius = 8</text>
</svg>
